# xmcd
#
# Track frame offsets:
#  150
#  22263
#  30691
#  41785
#  52990
#  78551
#  90977
#  107956
#  118505
#  132969
#  149110
#  177130
#  194158
#  211245
#  232726
#  251487
#  274367
#  284544
#
# Disc length: 4177 seconds
#
# Revision: 0
# Processed by: cddbd v1.5.1PL2 Copyright (c) Steve Scherf et al.
# Submitted via: Collectorz.com_Music_Collector 6.9
#
DISCID=11104f12
DTITLE=Hat Fitz and Itchy - Hat Man'z On Hiz Way
DYEAR=2005
DGENRE=Blues
TTITLE0=78/16 Horse Flat Twin
TTITLE1=Cuckoo
TTITLE2=Hatman'z On His Way
TTITLE3=Yo Yo
TTITLE4=Black Nite
TTITLE5=Foot Dog Rag
TTITLE6=3 Nites Drunk
TTITLE7=Motherless Children
TTITLE8=Jitterbug Swing
TTITLE9=Hold My Hand
TTITLE10=Rooster Crows For Day
TTITLE11=Ballad Of Errol Collins
TTITLE12=Death Letter Blooze
TTITLE13=Skinny Squirrel
TTITLE14=Long Haired Doney
TTITLE15=Freddy Spagetti
TTITLE16=Ezy Rider
TTITLE17=Special Rider
EXTD=
EXTT0=
EXTT1=
EXTT2=
EXTT3=
EXTT4=
EXTT5=
EXTT6=
EXTT7=
EXTT8=
EXTT9=
EXTT10=
EXTT11=
EXTT12=
EXTT13=
EXTT14=
EXTT15=
EXTT16=
EXTT17=
PLAYORDER=
